raise_box
version=1
nRows=6
nColumns=115
inDegrees=yes
endheader
time HIPS_TX HIPS_TY HIPS_TZ HIPS_RX HIPS_RY HIPS_RZ SPINE_TX SPINE_TY SPINE_TZ SPINE_RX SPINE_RY SPINE_RZ CHEST_TX CHEST_TY CHEST_TZ CHEST_RX CHEST_RY CHEST_RZ NECK_TX NECK_TY NECK_TZ NECK_RX NECK_RY NECK_RZ SHOULDER_L_TX SHOULDER_L_TY SHOULDER_L_TZ SHOULDER_L_RX SHOULDER_L_RY SHOULDER_L_RZ ARM_L_TX ARM_L_TY ARM_L_TZ ARM_L_RX ARM_L_RY ARM_L_RZ FOREARM_L_TX FOREARM_L_TY FOREARM_L_TZ FOREARM_L_RX FOREARM_L_RY FOREARM_L_RZ HAND_L_TX HAND_L_TY HAND_L_TZ HAND_L_RX HAND_L_RY HAND_L_RZ SHOULDER_R_TX SHOULDER_R_TY SHOULDER_R_TZ SHOULDER_R_RX SHOULDER_R_RY SHOULDER_R_RZ ARM_R_TX ARM_R_TY ARM_R_TZ ARM_R_RX ARM_R_RY ARM_R_RZ FOREARM_R_TX FOREARM_R_TY FOREARM_R_TZ FOREARM_R_RX FOREARM_R_RY FOREARM_R_RZ HAND_R_TX HAND_R_TY HAND_R_TZ HAND_R_RX HAND_R_RY HAND_R_RZ UPLEG_L_TX UPLEG_L_TY UPLEG_L_TZ UPLEG_L_RX UPLEG_L_RY UPLEG_L_RZ LEG_L_TX LEG_L_TY LEG_L_TZ LEG_L_RX LEG_L_RY LEG_L_RZ FOOT_L_TX FOOT_L_TY FOOT_L_TZ FOOT_L_RX FOOT_L_RY FOOT_L_RZ UPLEG_R_TX UPLEG_R_TY UPLEG_R_TZ UPLEG_R_RX UPLEG_R_RY UPLEG_R_RZ LEG_R_TX LEG_R_TY LEG_R_TZ LEG_R_RX LEG_R_RY LEG_R_RZ FOOT_R_TX FOOT_R_TY FOOT_R_TZ FOOT_R_RX FOOT_R_RY FOOT_R_RZ HEAD_TX HEAD_TY HEAD_TZ HEAD_RX HEAD_RY HEAD_RZ
3.25247097 0.25463501 0.09133200 1.77125204 174.01442543 8.04123053 -179.58039789 0.00000000 0.00000000 0.00000000 -6.51713440 -0.00003033 -0.00001621 0.00000000 0.00000000 0.00000000 0.94242450 -0.37821102 0.41288227 0.00000000 0.00000000 0.00000000 9.19927883 0.00000866 -0.00000612 0.00000000 0.00000000 0.00000000 -2.00809660 3.12425175 -12.25764717 0.00000000 0.00000000 0.00000000 -0.73968278 -12.41054068 -62.01081667 0.00000000 0.00000000 0.00000000 -0.00001455 -29.55070037 -0.00008681 0.00000000 0.00000000 0.00000000 -107.69509385 13.68757119 40.83638276 0.00000000 0.00000000 0.00000000 -3.44166921 2.71975973 15.52591604 0.00000000 0.00000000 0.00000000 8.80395079 -1.40393075 55.26605727 0.00000000 0.00000000 0.00000000 0.00012722 49.24202695 -0.00005675 0.00000000 0.00000000 0.00000000 58.74393640 6.50332989 26.44315210 0.00000000 0.00000000 0.00000000 -12.55018934 2.75296833 2.50752368 0.00000000 0.00000000 0.00000000 17.55993391 -0.00197405 -0.00726023 0.00000000 0.00000000 0.00000000 -21.04549730 0.25610308 0.07601432 0.00000000 0.00000000 0.00000000 -9.12826211 -16.55065225 -5.74649322 0.00000000 0.00000000 0.00000000 7.09922733 0.00196505 0.01328065 0.00000000 0.00000000 0.00000000 -11.05765672 -5.26214467 -0.44360978 0.00000000 0.00000000 0.00000000 -5.15765815 -15.29447748 -4.13003664
3.26347494 0.25463501 0.09133200 1.77125204 174.01442543 8.04123053 -179.58039789 0.00000000 0.00000000 0.00000000 -6.51713440 -0.00003033 -0.00001621 0.00000000 0.00000000 0.00000000 0.94242450 -0.37821102 0.41288227 0.00000000 0.00000000 0.00000000 9.19927883 0.00000866 -0.00000612 0.00000000 0.00000000 0.00000000 -2.00809660 3.12425175 -12.25764717 0.00000000 0.00000000 0.00000000 -0.73968278 -12.41054068 -62.01081667 0.00000000 0.00000000 0.00000000 -0.00001455 -29.55070037 -0.00008681 0.00000000 0.00000000 0.00000000 -107.69509385 13.68757119 40.83638276 0.00000000 0.00000000 0.00000000 -3.44166921 2.71975973 15.52591604 0.00000000 0.00000000 0.00000000 8.80395079 -1.40393075 55.26605727 0.00000000 0.00000000 0.00000000 0.00012722 49.24202695 -0.00005675 0.00000000 0.00000000 0.00000000 58.74393640 6.50332989 26.44315210 0.00000000 0.00000000 0.00000000 -12.55018934 2.75296833 2.50752368 0.00000000 0.00000000 0.00000000 17.55993391 -0.00197405 -0.00726023 0.00000000 0.00000000 0.00000000 -21.04549730 0.25610308 0.07601432 0.00000000 0.00000000 0.00000000 -9.12826211 -16.55065225 -5.74649322 0.00000000 0.00000000 0.00000000 7.09922733 0.00196505 0.01328065 0.00000000 0.00000000 0.00000000 -11.05765672 -5.26214467 -0.44360978 0.00000000 0.00000000 0.00000000 -5.15765815 -15.29447748 -4.13003664
3.27447391 0.25463501 0.09133200 1.77125204 174.01442543 8.04123053 -179.58039789 0.00000000 0.00000000 0.00000000 -6.51713440 -0.00003033 -0.00001621 0.00000000 0.00000000 0.00000000 0.94242450 -0.37821102 0.41288227 0.00000000 0.00000000 0.00000000 9.19927883 0.00000866 -0.00000612 0.00000000 0.00000000 0.00000000 -2.00809660 3.12425175 -12.25764717 0.00000000 0.00000000 0.00000000 -0.73968278 -12.41054068 -62.01081667 0.00000000 0.00000000 0.00000000 -0.00001455 -29.55070037 -0.00008681 0.00000000 0.00000000 0.00000000 -107.69509385 13.68757119 40.83638276 0.00000000 0.00000000 0.00000000 -3.44166921 2.71975973 15.52591604 0.00000000 0.00000000 0.00000000 8.80395079 -1.40393075 55.26605727 0.00000000 0.00000000 0.00000000 0.00012722 49.24202695 -0.00005675 0.00000000 0.00000000 0.00000000 58.74393640 6.50332989 26.44315210 0.00000000 0.00000000 0.00000000 -12.55018934 2.75296833 2.50752368 0.00000000 0.00000000 0.00000000 17.55993391 -0.00197405 -0.00726023 0.00000000 0.00000000 0.00000000 -21.04549730 0.25610308 0.07601432 0.00000000 0.00000000 0.00000000 -9.12826211 -16.55065225 -5.74649322 0.00000000 0.00000000 0.00000000 7.09922733 0.00196505 0.01328065 0.00000000 0.00000000 0.00000000 -11.05765672 -5.26214467 -0.44360978 0.00000000 0.00000000 0.00000000 -5.15765815 -15.29447748 -4.13003664
3.28547382 0.25002101 0.09267400 1.77614498 174.14195614 8.12796434 -179.75194928 0.00000000 0.00000000 0.00000000 -6.13313578 0.00001325 0.00001577 0.00000000 0.00000000 0.00000000 1.12330261 0.52816748 1.42436336 0.00000000 0.00000000 0.00000000 9.19931780 0.00002514 0.00001352 0.00000000 0.00000000 0.00000000 -1.76794222 3.85878579 -13.40118894 0.00000000 0.00000000 0.00000000 -1.34786846 -13.58396383 -61.43417894 0.00000000 0.00000000 0.00000000 -0.00002624 -29.67284225 -0.00000826 0.00000000 0.00000000 0.00000000 -115.74697400 11.89972780 40.73792052 0.00000000 0.00000000 0.00000000 -2.99751944 1.06592808 16.26526321 0.00000000 0.00000000 0.00000000 5.67904044 0.17094388 53.62530218 0.00000000 0.00000000 0.00000000 -0.00012216 47.71294794 0.00014518 0.00000000 0.00000000 0.00000000 65.73879134 11.90527796 29.04835761 0.00000000 0.00000000 0.00000000 -13.40006274 3.91323738 3.11436033 0.00000000 0.00000000 0.00000000 18.65280786 -0.00206296 -0.00715176 0.00000000 0.00000000 0.00000000 -19.86142231 0.24621596 0.06796069 0.00000000 0.00000000 0.00000000 -9.27470757 -15.22936524 -5.28512907 0.00000000 0.00000000 0.00000000 7.84538218 0.00213154 0.01326755 0.00000000 0.00000000 0.00000000 -10.89319686 -6.17140994 -0.49966259 0.00000000 0.00000000 0.00000000 -2.01407671 -10.63037144 -3.94362719
3.29648471 0.25002101 0.09267400 1.77614498 174.14195614 8.12796434 -179.75194928 0.00000000 0.00000000 0.00000000 -6.13313578 0.00001325 0.00001577 0.00000000 0.00000000 0.00000000 1.12330261 0.52816748 1.42436336 0.00000000 0.00000000 0.00000000 9.19931780 0.00002514 0.00001352 0.00000000 0.00000000 0.00000000 -1.76794222 3.85878579 -13.40118894 0.00000000 0.00000000 0.00000000 -1.34786846 -13.58396383 -61.43417894 0.00000000 0.00000000 0.00000000 -0.00002624 -29.67284225 -0.00000826 0.00000000 0.00000000 0.00000000 -115.74697400 11.89972780 40.73792052 0.00000000 0.00000000 0.00000000 -2.99751944 1.06592808 16.26526321 0.00000000 0.00000000 0.00000000 5.67904044 0.17094388 53.62530218 0.00000000 0.00000000 0.00000000 -0.00012216 47.71294794 0.00014518 0.00000000 0.00000000 0.00000000 65.73879134 11.90527796 29.04835761 0.00000000 0.00000000 0.00000000 -13.40006274 3.91323738 3.11436033 0.00000000 0.00000000 0.00000000 18.65280786 -0.00206296 -0.00715176 0.00000000 0.00000000 0.00000000 -19.86142231 0.24621596 0.06796069 0.00000000 0.00000000 0.00000000 -9.27470757 -15.22936524 -5.28512907 0.00000000 0.00000000 0.00000000 7.84538218 0.00213154 0.01326755 0.00000000 0.00000000 0.00000000 -10.89319686 -6.17140994 -0.49966259 0.00000000 0.00000000 0.00000000 -2.01407671 -10.63037144 -3.94362719
3.30747962 0.25002101 0.09267400 1.77614498 174.14195614 8.12796434 -179.75194928 0.00000000 0.00000000 0.00000000 -6.13313578 0.00001325 0.00001577 0.00000000 0.00000000 0.00000000 1.12330261 0.52816748 1.42436336 0.00000000 0.00000000 0.00000000 9.19931780 0.00002514 0.00001352 0.00000000 0.00000000 0.00000000 -1.76794222 3.85878579 -13.40118894 0.00000000 0.00000000 0.00000000 -1.34786846 -13.58396383 -61.43417894 0.00000000 0.00000000 0.00000000 -0.00002624 -29.67284225 -0.00000826 0.00000000 0.00000000 0.00000000 -115.74697400 11.89972780 40.73792052 0.00000000 0.00000000 0.00000000 -2.99751944 1.06592808 16.26526321 0.00000000 0.00000000 0.00000000 5.67904044 0.17094388 53.62530218 0.00000000 0.00000000 0.00000000 -0.00012216 47.71294794 0.00014518 0.00000000 0.00000000 0.00000000 65.73879134 11.90527796 29.04835761 0.00000000 0.00000000 0.00000000 -13.40006274 3.91323738 3.11436033 0.00000000 0.00000000 0.00000000 18.65280786 -0.00206296 -0.00715176 0.00000000 0.00000000 0.00000000 -19.86142231 0.24621596 0.06796069 0.00000000 0.00000000 0.00000000 -9.27470757 -15.22936524 -5.28512907 0.00000000 0.00000000 0.00000000 7.84538218 0.00213154 0.01326755 0.00000000 0.00000000 0.00000000 -10.89319686 -6.17140994 -0.49966259 0.00000000 0.00000000 0.00000000 -2.01407671 -10.63037144 -3.94362719
